<?xml version="1.0" encoding="UTF-8" standalone="no"?>
<svg
   xmlns:dc="http://purl.org/dc/elements/1.1/"
   xmlns:cc="http://creativecommons.org/ns#"
   xmlns:rdf="http://www.w3.org/1999/02/22-rdf-syntax-ns#"
   xmlns:svg="http://www.w3.org/2000/svg"
   xmlns="http://www.w3.org/2000/svg"
   id="svg8"
   version="1.1"
   viewBox="0 0 203.75507 121.44973"
   height="121.44973mm"
   width="203.75507mm">
  <defs
     id="defs2">
    <clipPath
       clipPathUnits="userSpaceOnUse"
       id="clipPath44">
      <path
         d="m 6414,11586.8 c -2942.47,171.3 -5302.22,3284.3 -3736.46,5091 642.03,740.8 1397.22,519.8 2189.62,298.8 706.35,-196.9 1442.28,-393.9 2154,90.4 2323.32,1580.8 6087.34,1868.2 6585.54,-124.6 498.2,-1992.7 -1152.1,-5106.5 -2382,-5293.3 -1229.94,-186.8 -4810.7,-62.3 -4810.7,-62.3"
         id="path42" />
    </clipPath>
  </defs>
  <metadata
     id="metadata5">
    <rdf:RDF>
      <cc:Work
         rdf:about="">
        <dc:format>image/svg+xml</dc:format>
        <dc:type
           rdf:resource="http://purl.org/dc/dcmitype/StillImage" />
        <dc:title></dc:title>
      </cc:Work>
    </rdf:RDF>
  </metadata>
  <g
     transform="translate(-1.1030791,-1.5907914)"
     id="layer1">
    <g
       transform="matrix(0.03527778,3.2382182e-4,0,-0.03527778,-308.45663,421.30114)"
       id="g20">
      <g
         transform="matrix(0.5,0,0,0.5,7685.6542,2845.8506)"
         id="g2366">
        <path
           transform="matrix(1.16167,0,0,1.16167,2.5393699e-4,-2.2798401e-4)"
           d="M 5521.36,9974.31 C 2988.4,10121.7 957.055,12801.5 2304.91,14356.7 c 1045.34,1206.2 2439.14,-549.5 3739.13,335.1 1999.98,1360.8 5240.16,1608.2 5669.06,-107.2 428.8,-1715.5 -991.8,-4395.9 -2050.53,-4556.7 -1058.77,-160.81 -4141.21,-53.59 -4141.21,-53.59"
           style="opacity:0.7;fill:#ffffff;fill-opacity:1;fill-rule:nonzero;stroke:none"
           id="path28" />
        <g
           id="g30"
           transform="scale(1.02946)">
          <path
             d="m 6600.97,15353.6 c 30.24,-725.9 22.68,-1119.1 -241.98,-1421.5 -264.64,-302.5 -1005.67,-226.9 -1005.67,-226.9 0,0 -73.1,-1068.7 -1109.02,-1114.1 -1035.93,-45.3 -1184.64,1330.9 -373.04,1683.7 772.59,336 1018.28,433.6 1285.45,1265.3 244.08,759.9 1005.7,615 1187.17,297.5 181.48,-317.6 257.09,-484 257.09,-484"
             style="fill:#303c60;fill-opacity:1;fill-rule:nonzero;stroke:none"
             id="path32" />
        </g>
        <path
           d="m 6445.13,11991.6 c 0,0 503.38,-98.6 529.33,-93.4 25.95,5.2 576.04,249.1 633.12,212.8 57.09,-36.3 389.22,-176.5 461.87,-207.6 72.65,-31.1 -41.52,-41.5 -98.6,-41.5 -57.09,0 -384.02,134.9 -420.35,109 -36.33,-26 285.42,-77.9 285.42,-98.6 0,-20.8 -861.46,-218 -913.35,-218 -51.9,0 -451.49,36.3 -451.49,36.3 l -25.95,301"
           style="fill:#e38540;fill-opacity:1;fill-rule:nonzero;stroke:none"
           id="path34" />
        <path
           d="m 6027.37,14740.8 c 271.16,-53.2 430.74,-340.2 482.63,-591.5 51.89,-251.4 -482.63,591.5 -482.63,591.5"
           style="fill:#6791c9;fill-opacity:1;fill-rule:nonzero;stroke:none"
           id="path36" />
        <g
           id="g38">
          <g
             id="g40"
             clip-path="url(#clipPath44)">
            <path
               d="m 5573.29,14934.1 c 0,0 -521.54,-350.3 -801.78,-521.6 -280.23,-171.2 101.2,-2016.1 194.61,-2701.1 93.41,-685 1712.54,-62.3 1712.54,-62.3 0,0 -108.98,576.1 31.13,1502.4 100.37,663.5 -267.26,1079.4 -477.43,1367.4 -530.46,726.9 -659.07,415.2 -659.07,415.2"
               style="fill:#75a1de;fill-opacity:1;fill-rule:nonzero;stroke:none"
               id="path46" />
            <path
               d="m 5059.53,14404.8 c 599.39,-731.8 802,-868.6 653.88,-1362.3 -116.76,-389.2 -155.69,-529.3 -179.04,-661.7 -23.35,-132.3 1113.15,85.7 1113.15,85.7 l -7.78,-428.2 c 0,0 -895.19,-428.1 -1331.12,-513.7 -435.91,-85.7 -708.36,15.5 -708.36,15.5 l 459.27,2864.7"
               style="fill:#6791c9;fill-opacity:1;fill-rule:nonzero;stroke:none"
               id="path48" />
          </g>
        </g>
        <path
           d="M 12565.2,11474 H 5473.41 c -51.19,0 -92.7,41.5 -92.7,92.7 0,51.2 41.51,92.7 92.7,92.7 h 7091.79 c 51.2,0 92.7,-41.5 92.7,-92.7 0,-51.2 -41.5,-92.7 -92.7,-92.7"
           style="fill:#2e5b9a;fill-opacity:1;fill-rule:nonzero;stroke:none"
           id="path50" />
        <path
           d="m 5765.3,15671 -269.85,-799.2 c 0,0 295.8,-801.8 544.9,-622.7 85.04,61.1 -31.14,544.9 -31.14,544.9 l 181.63,648.7 -425.54,228.3"
           style="fill:#f09959;fill-opacity:1;fill-rule:nonzero;stroke:none"
           id="path52" />
        <path
           d="m 4903.84,14435.9 c -372.64,-41.4 -404.78,-544.9 -576.03,-1385.6 -171.26,-840.7 -119.79,-1395.6 -38.92,-1502.4 194.6,-256.9 2381.98,638.3 2654.44,630.5 188.03,-5.3 31.13,311.4 31.13,311.4 l -2086.19,-319.1 c 0,0 295.81,973 295.81,1471.2 0,498.2 -140.12,809.6 -280.24,794"
           style="fill:#f09959;fill-opacity:1;fill-rule:nonzero;stroke:none"
           id="path54" />
        <path
           d="m 6842.13,12474.3 c 217.96,54.4 537.11,179 599.38,124.5 62.28,-54.5 319.16,-443.7 404.79,-552.7 85.62,-109 -38.92,-23.3 -132.33,62.3 -93.41,85.6 -171.26,132.3 -171.26,132.3 0,0 -116.76,-109 -225.74,-171.2 -108.98,-62.3 -147.9,62.2 -334.72,93.4 -186.83,31.1 -653.88,-132.4 -653.88,-132.4 l 513.76,443.8"
           style="fill:#f09959;fill-opacity:1;fill-rule:nonzero;stroke:none"
           id="path56" />
        <path
           d="m 4945.36,14498.2 c -228.34,-10.4 -404.78,-202.4 -467.05,-498.2 -62.28,-295.8 -243.92,-1235.1 -243.92,-1235.1 0,0 -36.32,-26 342.51,-93.5 378.84,-67.4 690.21,10.4 690.21,10.4 0,0 77.84,534.6 57.08,903 -20.75,368.5 -103.79,716.2 -238.71,835.5 -134.93,119.4 -140.12,77.9 -140.12,77.9"
           style="fill:#75a1de;fill-opacity:1;fill-rule:nonzero;stroke:none"
           id="path58" />
        <path
           d="m 6009.21,14794 181.63,648.7 -425.54,228.3 -65,-192.5 c -14.14,-644.5 150.94,-860 262.2,-938.8 34.75,-24.6 64.63,-5.6 89.68,34.6 -18.28,116.8 -42.97,219.7 -42.97,219.7"
           style="fill:#e38540;fill-opacity:1;fill-rule:nonzero;stroke:none"
           id="path60" />
        <path
           d="m 6873.27,15595.7 c 0,-347.1 -41.44,-772.8 -342.51,-762.8 -467.06,15.5 -761.37,378.6 -761.37,725.8 0,347.2 244.2,628.7 545.44,628.7 301.23,0 558.44,-244.5 558.44,-591.7"
           style="fill:#f09959;fill-opacity:1;fill-rule:nonzero;stroke:none"
           id="path62" />
        <path
           d="M 10358.8,11659.7 H 8607.93 l 720.19,1584.4 c 21.02,46.2 67.11,75.9 117.91,75.9 H 11035 c 36.8,0 61.2,-38 46,-71.5 l -722.2,-1588.8"
           style="fill:#9bd6e8;fill-opacity:1;fill-rule:nonzero;stroke:none"
           id="path64" />
        <path
           d="M 10355,11659.7 H 7124.96 c 0,112.5 91.23,203.7 203.76,203.7 H 10355 v -203.7"
           style="fill:#9bd6e8;fill-opacity:1;fill-rule:nonzero;stroke:none"
           id="path66" />
        <path
           d="M 11035,13320 H 9634.7 c -50.79,0 -96.89,-29.7 -117.91,-75.9 l -720.18,-1584.4 h 1562.19 l 722.2,1588.8 c 15.2,33.5 -9.2,71.5 -46,71.5"
           style="fill:#7bcee8;fill-opacity:1;fill-rule:nonzero;stroke:none"
           id="path68" />
        <g
           id="g70"
           transform="scale(1.00192)">
          <path
             d="m 6347.29,16276.7 c 330.2,23.3 525.73,-278.4 582.71,-542.6 41.1,-190.6 20.71,-227.9 20.71,-227.9 0,0 -36.26,-51.8 -295.23,-67.3 -258.99,-15.5 -290.05,-10.4 -290.05,-10.4 l -15.55,300.4 -77.7,-290 c 0,0 -41.43,-57 -201.99,20.7 -160.57,77.7 -233.09,336.7 -233.09,336.7 0,0 -36.25,170.9 88.06,284.9 124.3,113.9 422.13,195.5 422.13,195.5"
             style="fill:#303c60;fill-opacity:1;fill-rule:nonzero;stroke:none"
             id="path72" />
        </g>
        <path
           d="m 6113.37,15527.1 c -31.73,-210 -199.35,-358.8 -374.39,-332.4 -175.04,26.5 -291.21,218.2 -259.48,428.2 31.74,210 199.36,358.8 374.4,332.3 175.04,-26.4 291.21,-218.1 259.47,-428.1"
           style="fill:#d54a41;fill-opacity:1;fill-rule:nonzero;stroke:none"
           id="path74" />
        <path
           d="m 5986.92,15532.7 c -29.38,-194.4 -167,-334.9 -307.37,-313.7 -140.38,21.3 -230.36,196.1 -200.98,390.5 29.39,194.5 167.01,334.9 307.38,313.7 140.38,-21.2 230.36,-196 200.97,-390.5"
           style="fill:#f39892;fill-opacity:1;fill-rule:nonzero;stroke:none"
           id="path76" />
        <path
           d="m 5772.4,15576.2 c -16.15,-106.9 -74.34,-186.7 -130,-178.3 -55.65,8.4 -87.68,101.9 -71.53,208.7 16.14,106.8 74.34,186.6 129.99,178.2 55.65,-8.4 87.68,-101.8 71.54,-208.6"
           style="fill:#f2e5de;fill-opacity:1;fill-rule:nonzero;stroke:none"
           id="path78" />
        <g
           id="g80"
           transform="scale(1.01315)">
          <path
             d="m 5689.21,15743 c 149.83,557 667.02,475.8 797.79,398.2 110.12,-65.3 125.48,-157.5 125.48,-157.5 0,0 -142.13,115.3 -384.15,73 -229.66,-40.1 -366.25,-175.4 -385.45,-325.3 -9.8,-76.3 -153.67,11.6 -153.67,11.6"
             style="fill:#d54a41;fill-opacity:1;fill-rule:nonzero;stroke:none"
             id="path82" />
        </g>
        <path
           d="m 3435.22,14128.1 h -1.15 c -6.6,0.7 -11.43,6.5 -10.8,13.1 13.63,142.7 84.96,289.4 200.85,413.1 131.03,139.8 317.51,250 539.27,318.6 494.14,152.8 925.21,347.1 1196.09,1180.6 2.05,6.3 8.82,9.8 15.13,7.7 6.3,-2 9.75,-8.8 7.7,-15.1 -124.49,-383 -293.95,-661.9 -518.04,-852.6 -197.65,-168.2 -420.3,-258.9 -693.79,-343.5 -217.78,-67.4 -400.66,-175.3 -528.85,-312.1 -112.28,-119.8 -181.34,-261.5 -194.47,-399 -0.6,-6.2 -5.82,-10.8 -11.94,-10.8"
           style="fill:#303c60;fill-opacity:1;fill-rule:nonzero;stroke:none"
           id="path84" />
        <path
           d="m 3658.37,14704.1 c -3.58,0 -7.13,1.6 -9.49,4.7 -4.07,5.2 -3.11,12.7 2.13,16.8 2.1,1.6 213.24,163.3 518.53,230.6 586.11,129.1 979.61,481.6 1137.95,1019.2 1.88,6.3 8.53,10 14.9,8.1 6.36,-1.9 10,-8.6 8.13,-14.9 -97.82,-332.1 -281.85,-594.2 -546.96,-779 -170.72,-119.1 -375.57,-205.5 -608.86,-256.9 -299.78,-66 -506.94,-224.5 -508.99,-226.1 -2.18,-1.7 -4.78,-2.5 -7.34,-2.5"
           style="fill:#303c60;fill-opacity:1;fill-rule:nonzero;stroke:none"
           id="path86" />
        <path
           d="M 11173,14876.4 H 9592.1 c -14.82,0 -22.46,12 -17.07,26.9 l 320.66,881 c 5.4,14.8 21.78,26.8 36.6,26.8 h 1580.91 c 14.8,0 22.4,-12 17,-26.8 l -320.6,-881 c -5.4,-14.9 -21.8,-26.9 -36.6,-26.9"
           style="fill:#9ec8ff;fill-opacity:1;fill-rule:nonzero;stroke:none"
           id="path88" />
        <path
           d="M 11153.9,14917.6 H 9641.15 c -13.84,0 -20.97,11.2 -15.94,25.1 l 291.99,802.2 c 5.04,13.8 20.34,25 34.18,25 h 1512.72 c 13.8,0 21,-11.2 15.9,-25 l -291.9,-802.2 c -5.1,-13.9 -20.4,-25.1 -34.2,-25.1"
           style="fill:#ffffff;fill-opacity:1;fill-rule:nonzero;stroke:none"
           id="path90" />
        <path
           d="M 11126.6,14969.8 H 9706.46 c -15.55,0 -23.58,12.6 -17.92,28.2 l 251.7,691.5 c 5.66,15.6 22.86,28.2 38.42,28.2 h 1420.14 c 15.5,0 23.6,-12.6 17.9,-28.2 L 11165,14998 c -5.6,-15.6 -22.9,-28.2 -38.4,-28.2"
           style="fill:#9ec8ff;fill-opacity:1;fill-rule:nonzero;stroke:none"
           id="path92" />
        <path
           d="m 10812.1,15343.8 c -52.2,-143.3 -210.6,-259.5 -353.9,-259.5 -143.3,0 -217.2,116.2 -165.1,259.5 52.2,143.3 210.7,259.5 354,259.5 143.3,0 217.2,-116.2 165,-259.5"
           style="fill:#ffffff;fill-opacity:1;fill-rule:nonzero;stroke:none"
           id="path94" />
        <path
           d="m 10776.1,15343.8 c -45,-123.4 -181.4,-223.5 -304.8,-223.5 -123.4,0 -187,100.1 -142.1,223.5 44.9,123.4 181.4,223.4 304.8,223.4 123.3,0 187,-100 142.1,-223.4"
           style="fill:#9ec8ff;fill-opacity:1;fill-rule:nonzero;stroke:none"
           id="path96" />
        <path
           d="m 10667.1,15355.7 -98.8,-47.1 -98.9,-47.2 34.4,94.3 34.3,94.3 64.5,-47.1 64.5,-47.2"
           style="fill:#ffffff;fill-opacity:1;fill-rule:nonzero;stroke:none"
           id="path98" />
        <path
           d="m 8751.68,16132.2 c -28.37,0 -62.49,-25.3 -73.01,-54.3 l -45.33,-124.5 c -4.29,-11.8 -4.07,-22.4 0.62,-29.1 5.07,-7.2 14.43,-8.8 21.39,-8.8 h 124.55 c 28.86,0 62.3,24.9 73,54.3 l 45.33,124.6 c 4.3,11.8 4.07,22.4 -0.61,29 -5.07,7.3 -14.43,8.8 -21.39,8.8 z m 28.22,-264.7 h -124.55 c -25.57,0 -47.7,10.7 -60.71,29.3 -13.8,19.7 -16.13,46.3 -6.4,73 l 45.33,124.6 c 17.52,48.1 69.4,85.8 118.11,85.8 h 124.55 c 25.58,0 47.71,-10.6 60.71,-29.2 13.79,-19.7 16.12,-46.3 6.39,-73.1 L 8898,15953.4 c -17.52,-48.1 -69.4,-85.9 -118.1,-85.9"
           style="fill:#9cd499;fill-opacity:1;fill-rule:nonzero;stroke:none"
           id="path100" />
        <path
           d="m 8559.02,15602.9 c -28.37,0 -62.49,-25.4 -73.01,-54.3 l -45.33,-124.5 c -4.29,-11.8 -4.07,-22.4 0.62,-29.1 5.06,-7.3 14.43,-8.8 21.39,-8.8 h 124.55 c 28.86,0 62.3,24.9 73,54.3 l 45.34,124.5 c 4.29,11.8 4.06,22.4 -0.62,29.1 -5.07,7.3 -14.43,8.8 -21.4,8.8 z m 28.22,-264.7 h -124.55 c -25.58,0 -47.7,10.7 -60.71,29.2 -13.8,19.7 -16.13,46.4 -6.4,73.1 l 45.33,124.5 c 17.52,48.2 69.4,85.9 118.11,85.9 h 124.54 c 25.59,0 47.71,-10.7 60.72,-29.2 13.8,-19.8 16.12,-46.4 6.39,-73.1 l -45.33,-124.5 c -17.52,-48.2 -69.39,-85.9 -118.1,-85.9"
           style="fill:#9cd499;fill-opacity:1;fill-rule:nonzero;stroke:none"
           id="path102" />
        <path
           d="m 8366.36,15073.5 c -28.87,0 -62.3,-24.8 -73.01,-54.2 l -45.33,-124.6 c -4.29,-11.8 -4.06,-22.4 0.62,-29.1 5.07,-7.2 14.43,-8.7 21.39,-8.7 h 124.55 c 28.86,0 62.3,24.8 73,54.3 l 45.34,124.5 c 4.29,11.8 4.06,22.4 -0.63,29.1 -5.06,7.2 -14.42,8.7 -21.38,8.7 z m 28.22,-264.6 h -124.55 c -25.58,0 -47.71,10.6 -60.71,29.2 -13.8,19.7 -16.13,46.3 -6.4,73.1 l 45.33,124.5 c 17.52,48.1 69.4,85.9 118.11,85.9 h 124.55 c 25.57,0 47.7,-10.7 60.71,-29.3 13.79,-19.7 16.12,-46.3 6.4,-73 l -45.33,-124.6 c -17.52,-48.1 -69.4,-85.8 -118.11,-85.8"
           style="fill:#9ec8ff;fill-opacity:1;fill-rule:nonzero;stroke:none"
           id="path104" />
        <path
           d="M 9804.62,15969.4 H 9119.6 c -12.84,0 -19.53,10.5 -14.85,23.3 4.67,12.9 19.01,23.4 31.85,23.4 h 685.02 c 12.84,0 19.52,-10.5 14.85,-23.4 -4.68,-12.8 -19.01,-23.3 -31.85,-23.3"
           style="fill:#9ec8ff;fill-opacity:1;fill-rule:nonzero;stroke:none"
           id="path106" />
        <path
           d="M 9770.62,15876 H 9085.6 c -12.84,0 -19.53,10.5 -14.85,23.3 4.67,12.9 19.01,23.4 31.85,23.4 h 685.02 c 12.84,0 19.52,-10.5 14.85,-23.4 -4.67,-12.8 -19.01,-23.3 -31.85,-23.3"
           style="fill:#9ec8ff;fill-opacity:1;fill-rule:nonzero;stroke:none"
           id="path108" />
        <path
           d="M 9626.12,15479 H 8941.1 c -12.84,0 -19.52,10.5 -14.85,23.3 4.68,12.9 19.01,23.4 31.86,23.4 h 685.01 c 12.85,0 19.53,-10.5 14.86,-23.4 -4.68,-12.8 -19.02,-23.3 -31.86,-23.3"
           style="fill:#9ec8ff;fill-opacity:1;fill-rule:nonzero;stroke:none"
           id="path110" />
        <path
           d="M 9592.12,15385.6 H 8907.1 c -12.84,0 -19.52,10.5 -14.84,23.3 4.67,12.9 19,23.4 31.85,23.4 h 685.02 c 12.84,0 19.52,-10.5 14.84,-23.4 -4.67,-12.8 -19,-23.3 -31.85,-23.3"
           style="fill:#9ec8ff;fill-opacity:1;fill-rule:nonzero;stroke:none"
           id="path112" />
        <path
           d="m 9427.8,14934.1 h -685.02 c -12.85,0 -19.53,10.5 -14.86,23.3 4.68,12.9 19.01,23.4 31.86,23.4 h 685.01 c 12.85,0 19.54,-10.5 14.86,-23.4 -4.68,-12.8 -19.01,-23.3 -31.85,-23.3"
           style="fill:#9ec8ff;fill-opacity:1;fill-rule:nonzero;stroke:none"
           id="path114" />
        <path
           d="m 9393.8,14840.7 h -685.02 c -12.84,0 -19.53,10.5 -14.85,23.3 4.67,12.9 19.01,23.4 31.85,23.4 h 685.02 c 12.84,0 19.52,-10.5 14.85,-23.4 -4.68,-12.8 -19.01,-23.3 -31.85,-23.3"
           style="fill:#9ec8ff;fill-opacity:1;fill-rule:nonzero;stroke:none"
           id="path116" />
        <path
           d="m 8750.91,15937.6 c -2.11,0 -4.23,0.3 -6.31,0.8 -7.25,2 -13.15,7.3 -15.96,14.2 l -47.01,116.8 c -4.96,12.3 1,26.3 13.29,31.2 12.29,5 26.28,-1 31.23,-13.3 l 35.19,-87.4 277.87,214.2 c 10.49,8.1 25.57,6.2 33.66,-4.3 8.1,-10.5 6.14,-25.6 -4.35,-33.7 l -302.96,-233.5 c -4.25,-3.3 -9.41,-5 -14.65,-5"
           style="fill:#f37168;fill-opacity:1;fill-rule:nonzero;stroke:none"
           id="path118" />
        <path
           d="m 8558.25,15408.3 c -2.11,0 -4.23,0.2 -6.31,0.8 -7.24,2 -13.15,7.2 -15.95,14.2 l -47.03,116.8 c -4.95,12.3 1.01,26.3 13.3,31.2 12.3,5 26.28,-1 31.23,-13.3 l 35.19,-87.4 277.87,214.2 c 10.5,8.1 25.57,6.1 33.66,-4.4 8.1,-10.4 6.14,-25.5 -4.36,-33.6 l -302.95,-233.5 c -4.25,-3.3 -9.41,-5 -14.65,-5"
           style="fill:#f37168;fill-opacity:1;fill-rule:nonzero;stroke:none"
           id="path120" />
        <g
           id="g122"
           transform="scale(1.02891)">
          <path
             d="m 12720,16118.4 h -2557.2 l 66.1,181.6 h 2557.2 l -66.1,-181.6"
             style="fill:#9ec8ff;fill-opacity:1;fill-rule:nonzero;stroke:none"
             id="path124" />
        </g>
        <g
           id="g126"
           transform="scale(1.01171)">
          <path
             d="m 12835.4,16115.3 h -2600.7 l 67.2,184.7 h 2600.7 l -67.2,-184.7"
             style="fill:#9ec8ff;fill-opacity:1;fill-rule:nonzero;stroke:none"
             id="path128" />
        </g>
        <path
           d="M 10069.3,14063.9 H 8137.22 c -25.25,0 -38.38,20.6 -29.2,45.9 9.19,25.2 37.37,45.9 62.61,45.9 h 1932.07 c 25.3,0 38.4,-20.7 29.2,-45.9 -9.2,-25.3 -37.3,-45.9 -62.6,-45.9"
           style="fill:#9ec8ff;fill-opacity:1;fill-rule:nonzero;stroke:none"
           id="path130" />
        <path
           d="M 9995.08,13859.9 H 8062.97 c -25.25,0 -38.39,20.6 -29.2,45.9 9.19,25.2 37.37,45.9 62.61,45.9 h 1932.12 c 25.2,0 38.4,-20.7 29.2,-45.9 -9.2,-25.3 -37.4,-45.9 -62.62,-45.9"
           style="fill:#9ec8ff;fill-opacity:1;fill-rule:nonzero;stroke:none"
           id="path132" />
        <path
           d="m 11803.8,12134.9 c 0,32.4 390.4,1111.5 126.4,1806.2 -184.8,486.5 -214,1070.2 -214,1070.2 0,0 -359.9,-515.6 -116.7,-1303.6 149.7,-485 210.8,-619.4 223.7,-762.1 13,-142.7 -58.3,-856.1 -58.3,-856.1 l 38.9,45.4"
           style="fill:#9cd499;fill-opacity:1;fill-rule:nonzero;stroke:none"
           id="path134" />
        <path
           d="m 11706.7,14973.1 c -29.6,-50.9 -87,-162.6 -128.7,-322.3 -53.8,-205.7 -91.7,-535.8 32.9,-939.6 50.6,-163.9 90.7,-286.7 123,-385.3 63.6,-194.6 92.6,-283.4 101.3,-379.2 11.3,-124.8 -40,-669.6 -54.7,-820.5 l 11.9,13.8 c 1.4,7.2 5.6,21.4 16.2,57.1 225.5,753.8 262.7,1339.1 110.4,1739.8 -156.6,412.1 -202.1,899.1 -212.3,1036.2 z m 58.2,-2895.6 c -1.6,0 -3.2,0.3 -4.8,0.9 -4.8,2.1 -7.7,7.1 -7.2,12.3 0.7,7.1 71.1,713.9 58.4,853.8 -8.5,93.1 -37.2,181.1 -100.2,373.9 -32.3,98.8 -72.5,221.7 -123.1,385.7 -126.5,409.8 -87.7,744.9 -33,953.9 59.5,226.9 147.7,354.8 151.4,360.2 2.9,4.2 8.2,6 13.1,4.6 5,-1.4 8.4,-5.8 8.7,-10.9 0.3,-5.8 31.2,-587.5 213.3,-1066.5 98.7,-259.8 118.5,-602.3 58.9,-1018.2 -47.6,-332 -132.5,-615.8 -168.8,-737 -8.2,-27.6 -15.4,-51.5 -15.8,-55.8 0,-2.9 -1,-5.1 -2.9,-7.3 l -38.9,-45.4 c -2.4,-2.7 -5.7,-4.2 -9.1,-4.2"
           style="fill:#74b570;fill-opacity:1;fill-rule:nonzero;stroke:none"
           id="path136" />
        <path
           d="m 11888.1,12024.6 c -58.4,1199.9 227,1854.9 810.7,2373.8 583.7,518.8 609.6,655 609.6,655 0,0 -90.8,-1011.7 -428,-1362 -337.3,-350.2 -830.2,-609.6 -901.5,-791.2 -71.4,-181.6 -45.4,-791.3 -45.4,-791.3 l -45.4,-110.2 v 25.9"
           style="fill:#9cd499;fill-opacity:1;fill-rule:nonzero;stroke:none"
           id="path138" />
        <path
           d="m 11816.7,11920.9 c -6.4,19.4 123.3,1122 596.7,1186.8 473.5,64.9 583.7,-45.4 908,6.5 231.4,37 408.6,110.3 408.6,110.3 0,0 -122.8,-312.6 -544.8,-441.1 -298.3,-90.7 -687.5,58.4 -914.5,19.5 -227,-38.9 -343.7,-525.3 -343.7,-525.3 l -38.9,-253 -71.4,-103.7"
           style="fill:#9cd499;fill-opacity:1;fill-rule:nonzero;stroke:none"
           id="path140" />
        <path
           d="m 11881.6,12084 c -6.1,0 -11.4,4.6 -11.9,10.9 -0.8,7.7 -67.9,782.3 260.8,1375.4 169.9,306.3 355.3,483.8 534.6,655.5 167.1,160 324.9,311.1 444.5,550.4 3,5.9 10.2,8.3 16.1,5.3 6,-2.9 8.4,-10.2 5.4,-16.1 -121.5,-243 -280.8,-395.5 -449.4,-556.9 -178,-170.5 -362.1,-346.7 -530.2,-649.9 -325.1,-586.4 -258.7,-1353.8 -258,-1361.5 0.7,-6.6 -4.2,-12.5 -10.8,-13.1 h -1.1"
           style="fill:#74b570;fill-opacity:1;fill-rule:nonzero;stroke:none"
           id="path142" />
        <path
           d="m 11849.2,12239.6 c -1.1,0 -2.3,0.2 -3.4,0.5 -6.3,1.8 -10,8.5 -8.2,14.9 124.2,427.9 266.7,677.6 448.4,785.7 162.5,96.7 330.5,67 508.3,35.6 43.5,-7.7 88.5,-15.7 133.1,-21.5 386.3,-50.7 574.8,43.2 576.6,44.1 5.9,3.1 13.1,0.8 16.2,-5.1 3,-5.9 0.7,-13.1 -5.2,-16.2 -7.8,-4 -195.9,-98.4 -590.8,-46.6 -45,5.9 -90.3,13.9 -134.1,21.6 -173.3,30.7 -336.9,59.6 -491.8,-32.5 -176.2,-104.9 -315.3,-350.1 -437.6,-771.8 -1.5,-5.3 -6.3,-8.7 -11.5,-8.7"
           style="fill:#74b570;fill-opacity:1;fill-rule:nonzero;stroke:none"
           id="path144" />
        <path
           d="m 12468.6,13903.2 c -3.6,0 -7.2,1.6 -9.5,4.7 -4.1,5.2 -3.1,12.8 2.1,16.8 2.3,1.8 233,177.6 553.1,239 6.5,1.2 12.8,-3 14.1,-9.5 1.2,-6.5 -3,-12.8 -9.5,-14 -314.6,-60.4 -540.8,-232.8 -543,-234.5 -2.2,-1.7 -4.8,-2.5 -7.3,-2.5"
           style="fill:#74b570;fill-opacity:1;fill-rule:nonzero;stroke:none"
           id="path146" />
        <path
           d="m 12102.1,13381.1 c -2.1,0 -4.2,0.6 -6.1,1.7 -5.7,3.4 -7.6,10.7 -4.2,16.4 168.9,284.8 366.7,356.6 798,491.8 6.3,2 13,-1.6 15,-7.9 2,-6.3 -1.5,-13 -7.8,-15 -425.3,-133.3 -620.2,-203.9 -784.6,-481.1 -2.2,-3.8 -6.2,-5.9 -10.3,-5.9"
           style="fill:#74b570;fill-opacity:1;fill-rule:nonzero;stroke:none"
           id="path148" />
        <path
           d="m 11997.2,11625.8 h -289.6 c -102.3,0 -190.1,72.6 -209.3,173.1 l -93.4,488.4 h 895 l -93.4,-488.4 c -19.2,-100.5 -107,-173.1 -209.3,-173.1"
           style="fill:#f39892;fill-opacity:1;fill-rule:nonzero;stroke:none"
           id="path150" />
        <path
           d="m 12277.2,12162.8 h -843.1 c -13.3,0 -24,10.7 -24,24 0,13.2 10.7,24 24,24 h 843.1 c 13.3,0 24,-10.8 24,-24 0,-13.3 -10.7,-24 -24,-24"
           style="fill:#d54a41;fill-opacity:1;fill-rule:nonzero;stroke:none"
           id="path152" />
      </g>
    </g>
  </g>
</svg>
