<svg xmlns="http://www.w3.org/2000/svg" xmlns:xlink="http://www.w3.org/1999/xlink" width="428.709" height="133.565" viewBox="0 0 428.709 133.565">
  <defs>
    <linearGradient id="linear-gradient" x1="0.908" x2="0.054" y2="0.944" gradientUnits="objectBoundingBox">
      <stop offset="0" stop-color="#4abacc"/>
      <stop offset="1" stop-color="#4970be"/>
    </linearGradient>
  </defs>
  <path id="Trazado_2" data-name="Trazado 2" d="M58.784,39.481q-5.9,2.949-15.525,2.949-25.846,0-25.846-24.8V-32.592H2.583V-48.377H17.413V-68.933l20.121-5.724v26.279H58.784v15.785H37.535V11.814q0,7.892,2.862,11.275t9.54,3.382a13.833,13.833,0,0,0,8.847-2.949Zm27.494-106.5a12.1,12.1,0,0,1-8.456-3.209,10.559,10.559,0,0,1-3.513-8.153,10.829,10.829,0,0,1,3.513-8.239,11.919,11.919,0,0,1,8.456-3.3,12.292,12.292,0,0,1,8.673,3.3,10.767,10.767,0,0,1,3.556,8.239,10.617,10.617,0,0,1-3.556,8.023A12.2,12.2,0,0,1,86.277-67.024ZM96.251,40.435H76.13V-48.377H96.251ZM186.1,36.358q-10.668,6.158-25.239,6.158-19.775,0-31.917-12.359T116.807-1.89q0-21.943,13.053-35.256t34.909-13.313a50.958,50.958,0,0,1,21.422,4.25v18.734a32.445,32.445,0,0,0-19.775-6.938q-12.749,0-20.9,8.63T137.362-3.191q0,13.79,7.676,21.769t20.6,7.979q10.841,0,20.468-7.719Zm100.521,4.076h-25.5L226.607-2.237h-.347V40.435H206.052V-91.049H226.26V-7.7h.347l32.611-40.677h24.2L246.729-5.533Zm22.81-107.459a12.1,12.1,0,0,1-8.456-3.209,10.559,10.559,0,0,1-3.513-8.153,10.829,10.829,0,0,1,3.513-8.239,11.919,11.919,0,0,1,8.456-3.3,12.292,12.292,0,0,1,8.673,3.3,10.767,10.767,0,0,1,3.556,8.239,10.617,10.617,0,0,1-3.556,8.023A12.2,12.2,0,0,1,309.435-67.024Zm9.974,107.459H299.287V-48.377h20.121Zm65.655,2.082q-20.555,0-32.827-12.446t-12.272-33q0-22.376,12.793-34.952t34.475-12.576q20.815,0,32.437,12.229T431.291-4.318q0,21.249-12.533,34.042T385.064,42.516Zm.954-76.93q-11.8,0-18.647,8.239T360.519-3.451q0,13.964,6.938,21.986t18.56,8.023q11.882,0,18.257-7.892T410.649-3.8q0-14.657-6.375-22.637T386.018-34.414Z" transform="translate(-2.583 91.049)" fill="url(#linear-gradient)"/>
</svg>
