<svg xmlns="http://www.w3.org/2000/svg" width="123.186" height="27.191" viewBox="0 0 123.186 27.191">
    <defs>
        <style>
            .prefix__cls-1{fill:var(--color-dark)}.prefix__cls-2{fill:none}
        </style>
    </defs>
    <g id="prefix__Untitled" transform="translate(-77.383 -226.131)">
        <path id="prefix__Trazado_491" d="M7.314-29.763v4.463h3.237v3.053H7.314V-12a2.257 2.257 0 0 0 .415 1.518 1.927 1.927 0 0 0 1.484.467 6.35 6.35 0 0 0 1.442-.169v3.187a10.152 10.152 0 0 1-2.714.39q-4.747 0-4.747-5.242v-10.4H.172V-25.3h3.022v-4.464zM18.085-6.944h-4.122V-25.3h4.122zm-4.377-23.121a2.188 2.188 0 0 1 .6-1.579 2.275 2.275 0 0 1 1.722-.628 2.3 2.3 0 0 1 1.73.628 2.171 2.171 0 0 1 .61 1.579 2.121 2.121 0 0 1-.61 1.552 2.321 2.321 0 0 1-1.73.619 2.29 2.29 0 0 1-1.722-.619 2.137 2.137 0 0 1-.6-1.552zM30.112-9.9a3.727 3.727 0 0 0 2.561-.9 3.071 3.071 0 0 0 1.086-2.222h3.885a6.054 6.054 0 0 1-1.069 3.2 7.01 7.01 0 0 1-2.714 2.352 8.088 8.088 0 0 1-3.7.865A7.825 7.825 0 0 1 24.056-9.1a9.891 9.891 0 0 1-2.256-6.886v-.424a9.726 9.726 0 0 1 2.239-6.711 7.754 7.754 0 0 1 6.107-2.519 7.541 7.541 0 0 1 5.335 1.908 6.836 6.836 0 0 1 2.163 5.013h-3.885a3.775 3.775 0 0 0-1.077-2.6 3.465 3.465 0 0 0-2.57-1.018 3.627 3.627 0 0 0-3.087 1.45 7.4 7.4 0 0 0-1.105 4.4v.662A7.524 7.524 0 0 0 27-11.366 3.624 3.624 0 0 0 30.112-9.9zm16.607-4.919l-1.836 1.882v5.988h-4.118V-33h4.118v15.029l1.289-1.612 5.073-5.717H56.2l-6.814 7.65 7.547 10.7h-4.769zm16.556 7.87h-4.121V-25.3h4.122zM58.9-30.065a2.188 2.188 0 0 1 .6-1.579 2.275 2.275 0 0 1 1.722-.628 2.3 2.3 0 0 1 1.73.628 2.171 2.171 0 0 1 .61 1.579 2.121 2.121 0 0 1-.61 1.552 2.321 2.321 0 0 1-1.73.619 2.29 2.29 0 0 1-1.722-.619 2.137 2.137 0 0 1-.6-1.552zm8.092 13.774a10.823 10.823 0 0 1 1.069-4.86 7.8 7.8 0 0 1 3-3.325 8.459 8.459 0 0 1 4.444-1.162 8.017 8.017 0 0 1 6.031 2.392 9.408 9.408 0 0 1 2.5 6.344l.017.967a10.92 10.92 0 0 1-1.043 4.852 7.711 7.711 0 0 1-2.985 3.308A8.522 8.522 0 0 1 75.54-6.6a7.962 7.962 0 0 1-6.217-2.587 9.907 9.907 0 0 1-2.332-6.9zm4.122.356a7.4 7.4 0 0 0 1.168 4.435 3.8 3.8 0 0 0 3.257 1.6 3.764 3.764 0 0 0 3.25-1.627 8.169 8.169 0 0 0 1.162-4.767 7.3 7.3 0 0 0-1.195-4.406 3.818 3.818 0 0 0-3.248-1.628 3.784 3.784 0 0 0-3.206 1.6 8.009 8.009 0 0 0-1.188 4.792z" class="prefix__cls-1" data-name="Trazado 491" transform="translate(116.118 259.526)"/>
        <path id="prefix__Trazado_492" d="M7.6-25.8h3.24v3.843H7.6v9.892a1.629 1.629 0 0 0 .317 1.218 1.314 1.314 0 0 0 1.146.34h.043a5.731 5.731 0 0 0 1.352-.159l.486-.115V-6.8l-.287.081a10.83 10.83 0 0 1-2.822.405 5.1 5.1 0 0 1-3.853-1.44 6.219 6.219 0 0 1-1.289-4.2v-10H-.328V-25.8h3.022v-4.464H7.6zm-4.116-3.673v4.464H.462v2.264h3.022v10.793a5.174 5.174 0 0 0 1.085 3.667A4.045 4.045 0 0 0 7.836-7.1a8.942 8.942 0 0 0 2.319-.3v-2.407a5.49 5.49 0 0 1-1.034.084 2.559 2.559 0 0 1-1.758-.565l-.034-.028-.029-.038a2.889 2.889 0 0 1-.49-1.759v-10.635h3.237v-2.264H6.814v-4.461zm9.979 22.818V-25.8h4.912v19.145zm4.122-18.354h-3.332v17.565h3.332zm-4.377-5.159a2.859 2.859 0 0 1 .724-1.867 2.909 2.909 0 0 1 2-.737 2.978 2.978 0 0 1 2.013.748 2.819 2.819 0 0 1 .722 1.857 2.8 2.8 0 0 1-.736 1.838 2.952 2.952 0 0 1-2 .725 2.963 2.963 0 0 1-2.006-.739 2.779 2.779 0 0 1-.717-1.825zm1.275 1.27a1.692 1.692 0 0 0 1.418.5H15.952a1.707 1.707 0 0 0 1.428-.507 1.526 1.526 0 0 0 .492-1.259 1.624 1.624 0 0 0-.494-1.311 1.7 1.7 0 0 0-1.427-.513h-.05a1.664 1.664 0 0 0-1.416.512A1.588 1.588 0 0 0 14-30.183a1.577 1.577 0 0 0 .486 1.285zM30.021-10.4a3.123 3.123 0 0 0 2.292-.806 2.47 2.47 0 0 0 .946-1.936l.007-.379h4.686l-.019.411A6.7 6.7 0 0 1 36.8-9.7a7.639 7.639 0 0 1-2.862 2.478 8.718 8.718 0 0 1-3.868.907 8.456 8.456 0 0 1-6.407-2.624 10.5 10.5 0 0 1-2.363-7.152v-.415a10.4 10.4 0 0 1 2.343-6.986 8.369 8.369 0 0 1 6.4-2.647 8.153 8.153 0 0 1 5.6 2.015 7.465 7.465 0 0 1 2.287 5.3v.393h-4.672v-.39a3.159 3.159 0 0 0-.962-2.322 2.933 2.933 0 0 0-2.31-.9 3.024 3.024 0 0 0-2.74 1.277 6.846 6.846 0 0 0-1.038 4.182v.69a6.89 6.89 0 0 0 1.015 4.207 3.078 3.078 0 0 0 2.798 1.287zm-3.446-.842a8.255 8.255 0 0 1-1.156-4.7v-.638a8.022 8.022 0 0 1 1.166-4.62 4.284 4.284 0 0 1 3.424-1.636 4.1 4.1 0 0 1 2.848 1.136 4.153 4.153 0 0 1 1.163 2.48h3.118a5.981 5.981 0 0 0-2.028-4.326 6.918 6.918 0 0 0-5.052-1.806 7.207 7.207 0 0 0-5.825 2.383 9.1 9.1 0 0 0-2.144 6.433v.444a9.285 9.285 0 0 0 2.153 6.622 7.215 7.215 0 0 0 5.8 2.366 7.548 7.548 0 0 0 3.54-.824 6.4 6.4 0 0 0 2.565-2.219 5.065 5.065 0 0 0 .973-2.58H34a3.465 3.465 0 0 1-1.18 2.128 4.324 4.324 0 0 1-2.815.993 4.244 4.244 0 0 1-3.429-1.631zM46.562-14.3l-1.389 1.424v6.223h-4.908V-33.5h4.908v14.3l.6-.749 5.19-5.849h6.011l-7.191 8.073 7.805 11.07h-5.736zm.1-1.238l5.6 8.095h3.8l-7.286-10.339 6.437-7.227h-3.895l-4.948 5.576-1.986 2.482V-32.71h-3.329v25.266h3.329V-13.2zm11.992 8.883V-25.8h4.912v19.145zm4.122-18.354h-3.333v17.565h3.333zM58.4-30.168a2.859 2.859 0 0 1 .724-1.867 2.909 2.909 0 0 1 2-.737 2.978 2.978 0 0 1 2.013.748 2.819 2.819 0 0 1 .722 1.857 2.8 2.8 0 0 1-.736 1.838 2.952 2.952 0 0 1-2 .725 2.963 2.963 0 0 1-2.005-.739 2.779 2.779 0 0 1-.718-1.825zm1.275 1.27a1.692 1.692 0 0 0 1.418.5H61.144a1.707 1.707 0 0 0 1.428-.507 1.526 1.526 0 0 0 .492-1.259 1.612 1.612 0 0 0-.494-1.311 1.7 1.7 0 0 0-1.427-.513h-.05a1.664 1.664 0 0 0-1.416.512 1.588 1.588 0 0 0-.487 1.288 1.589 1.589 0 0 0 .486 1.285zm6.817 12.5a11.467 11.467 0 0 1 1.108-5.028 8.462 8.462 0 0 1 3.157-3.5 9.089 9.089 0 0 1 4.643-1.212 8.666 8.666 0 0 1 6.324 2.518 10.038 10.038 0 0 1 2.607 6.606l.017.966a11.557 11.557 0 0 1-1.081 5.027 8.365 8.365 0 0 1-3.142 3.48 9.148 9.148 0 0 1-4.683 1.225 8.592 8.592 0 0 1-6.522-2.726 10.53 10.53 0 0 1-2.425-7.16zm.79.2a9.337 9.337 0 0 0 2.234 6.636 7.345 7.345 0 0 0 5.9 2.452 7.968 7.968 0 0 0 4.3-1.116 7.084 7.084 0 0 0 2.83-3.136 10.287 10.287 0 0 0 1.005-4.677L83.538-17a8.8 8.8 0 0 0-2.393-6.079 7.4 7.4 0 0 0-5.73-2.269 7.9 7.9 0 0 0-4.257 1.107 7.18 7.18 0 0 0-2.846 3.154 10.194 10.194 0 0 0-1.031 4.687zm3.332.152a8.612 8.612 0 0 1 1.26-5.019A4.406 4.406 0 0 1 75.4-22.83a4.44 4.44 0 0 1 3.578 1.806 7.92 7.92 0 0 1 1.263 4.624 8.8 8.8 0 0 1-1.233 4.992 4.384 4.384 0 0 1-3.575 1.8 4.432 4.432 0 0 1-3.589-1.784 8.045 8.045 0 0 1-1.24-4.255h.008v-.388-.029.028zm.793-.395h.024l-.027.418a6.766 6.766 0 0 0 1.1 4.2 3.2 3.2 0 0 0 2.914 1.423 3.213 3.213 0 0 0 2.932-1.443 7.54 7.54 0 0 0 1.1-4.53v-.048a6.683 6.683 0 0 0-1.13-4.173 3.2 3.2 0 0 0-2.906-1.45 3.226 3.226 0 0 0-2.9 1.435 7.029 7.029 0 0 0-1.108 4.174z" class="prefix__cls-2" data-name="Trazado 492" transform="translate(116.224 259.631)"/>
        <path id="prefix__Línea_76" d="M0 0L0 25.506" class="prefix__cls-2" data-name="Línea 76" transform="rotate(-135 92.1 108.03)"/>
        <path id="prefix__Línea_77" d="M0 0L0 12.753" class="prefix__cls-2" data-name="Línea 77" transform="rotate(-135 88.952 102.975)"/>
        <path id="prefix__Línea_78" d="M0 0L0 12.753" class="prefix__cls-2" data-name="Línea 78" transform="rotate(-135 98.032 106.737)"/>
        <g id="prefix__Grupo_295" data-name="Grupo 295" transform="rotate(45 -224.426 221.394)">
            <rect id="prefix__Rectángulo_1527" width="4.842" height="12.664" class="prefix__cls-1" data-name="Rectángulo 1527" rx="2.421" transform="translate(0 6.332)"/>
            <rect id="prefix__Rectángulo_1528" width="4.842" height="12.664" class="prefix__cls-1" data-name="Rectángulo 1528" rx="2.421" transform="translate(18.251 6.332)"/>
            <rect id="prefix__Rectángulo_1529" width="4.842" height="25.328" class="prefix__cls-1" data-name="Rectángulo 1529" rx="2.421" transform="translate(8.939)"/>
        </g>
    </g>
</svg>
